{"title":"I.Love.You.Phillip.Morris.2009.BRRiP.720p.x264~PlutO~","uid":5714812,"size":524066111,"categoryP":"other","categoryS":"other","magnet":"?xt=urn:btih:6ed754230fef88fe50be45aa0280e737655b4ad3&amp;dn=I.Love.You.Phillip.Morris.2009.BRRiP.720p.x264%7EPlutO%7E&amp;tr=udp%3A%2F%2Ftracker.openbittorrent.com%3A80&amp;tr=udp%3A%2F%2Fopen.demonii.com%3A1337&amp;tr=udp%3A%2F%2Ftracker.coppersurfer.tk%3A6969&amp;tr=udp%3A%2F%2Fexodus.desync.com%3A6969","seeders":0,"leechers":1,"uploader":"pluto999","files":2,"time":1280041471,"description":"Directors:Glenn Ficarra, John Requa\n\nWriters (WGA):John Requa (written by) &amp;Glenn Ficarra (written by) ...\n\nRelease Date:October 2010 (USA) \n\nGenre:Comedy | Drama | Romance \n\nTagline:The Conman who wouldn't go straight \n\nPlot:Steven Russell is happily married to Debbie, and a member of the local police \nforce when a car accident provokes a dramatic reassessment of his life...\n\n------------------------------------------------------------\n\nGeneral\nFormat                           : MPEG-4\nFormat profile                   : Base Media\nCodec ID                         : isom\nFile size                        : 500 MiB\nDuration                         : 1h 37mn\nOverall bit rate                 : 716 Kbps\n\n\nVideo\nID                               : 1\nFormat                           : AVC\nFormat/Info                      : Advanced Video Codec\nFormat profile                   : &lt;a class=&quot;__cf_email__&quot; href=&quot;/cdn-cgi/l/email-protection&quot; data-cfemail=&quot;3c74555b547c700f120d&quot;&gt;[email&amp;#160;protected]&lt;/a&gt;&lt;script cf-hash='f9e31' type=&quot;text/javascript&quot;&gt;\n/* &lt;![CDATA[ */!function(){try{var t=&quot;currentScript&quot;in document?document.currentScript:function(){for(var t=document.getElementsByTagName(&quot;script&quot;),e=t.length;e--;)if(t[e].getAttribute(&quot;cf-hash&quot;))return t[e]}();if(t&amp;&amp;t.previousSibling){var e,r,n,i,c=t.previousSibling,a=c.getAttribute(&quot;data-cfemail&quot;);if(a){for(e=&quot;&quot;,r=parseInt(a.substr(0,2),16),n=2;a.length-n;n+=2)i=parseInt(a.substr(n,2),16)^r,e+=String.fromCharCode(i);e=document.createTextNode(e),c.parentNode.replaceChild(e,c)}}}catch(u){}}();/* ]]&gt; */&lt;/script&gt;\nFormat settings, CABAC           : Yes\nFormat settings, ReFrames        : 4 frames\nCodec ID                         : avc1\nCodec ID/Info                    : Advanced Video Coding\nDuration                         : 1h 37mn\nBit rate mode                    : Variable\nBit rate                         : 669 Kbps\nMaximum bit rate                 : 5 637 Kbps\nWidth                            : 1 280 pixels\nHeight                           : 704 pixels\nDisplay aspect ratio             : 16:9\nFrame rate mode                  : Constant\nFrame rate                       : 24.000 fps\nColor space                      : YUV\nChroma subsampling               : 4:2:0\nBit depth                        : 8 bits\nScan type                        : Progressive\nBits/(Pixel*Frame)               : 0.031\nStream size                      : 467 MiB (93%)\nTitle                            : Video\nWriting library                  : x264 core 104 r1675 2484aa0\n\n\nAudio\nID                               : 2\nFormat                           : AAC\nFormat/Info                      : Advanced Audio Codec\nFormat version                   : Version 4\nFormat profile                   : LC\nFormat settings, SBR             : Yes\nFormat settings, PS              : No\nCodec ID                         : 40\nDuration                         : 1h 37mn\nBit rate mode                    : Variable\nBit rate                         : 44.4 Kbps\nMaximum bit rate                 : 57.3 Kbps\nChannel(s)                       : 2 channels\nChannel positions                : Front: L R\nSampling rate                    : 48.0 KHz\nStream size                      : 31.0 MiB (6%)\nTitle                            : English\nLanguage                         : English\n\n\n------------------------------------------------------------\n\nComment seed &amp; enjoy!!","torrent":{"xt":"urn:btih:6ed754230fef88fe50be45aa0280e737655b4ad3","amp;dn":"I.Love.You.Phillip.Morris.2009.BRRiP.720p.x264%7EPlutO%7E","amp;tr":["udp%3A%2F%2Ftracker.openbittorrent.com%3A80","udp%3A%2F%2Fopen.demonii.com%3A1337","udp%3A%2F%2Ftracker.coppersurfer.tk%3A6969","udp%3A%2F%2Fexodus.desync.com%3A6969"],"infoHash":"6ed754230fef88fe50be45aa0280e737655b4ad3","infoHashBuffer":{"type":"Buffer","data":[110,215,84,35,15,239,136,254,80,190,69,170,2,128,231,55,101,91,74,211]},"announce":[],"urlList":[]}}